<svg viewBox="0 0 306 331" fill="none" xmlns="http://www.w3.org/2000/svg"><path d="M152.73 295.359C133.259 295.359 115.207 291.843 98.573 284.812C81.9356 277.772 67.394 267.762 54.948 254.782C42.5113 241.804 32.777 226.252 25.745 208.125C18.7143 190.001 15.1987 169.85 15.198 147.672C15.198 125.497 18.7137 105.351 25.745 87.234C32.777 69.1093 42.5113 53.5573 54.948 40.578C67.3947 27.5893 81.9363 17.579 98.573 10.547C115.208 3.51566 133.26 0 152.73 0C172.206 0 190.261 3.515 206.886 10.547C223.52 17.579 238.057 27.5893 250.496 40.578C262.941 53.558 272.683 69.109 279.714 87.234C286.745 105.351 290.261 125.497 290.261 147.672C290.261 169.852 286.745 190 279.714 208.125C272.683 226.25 262.941 241.805 250.495 254.781C238.057 267.762 223.521 277.772 206.886 284.812C190.261 291.844 172.206 295.359 152.73 295.359ZM152.73 264.922C172.48 264.922 190.128 260.058 205.683 250.328C221.232 240.591 233.534 226.929 242.589 209.344C251.652 191.761 256.183 171.204 256.183 147.672C256.183 123.871 251.652 103.251 242.589 85.812C233.535 68.3667 221.233 54.7733 205.683 45.032C190.128 35.292 172.48 30.422 152.73 30.422C132.989 30.422 115.343 35.292 99.792 45.032C84.2386 54.7733 71.9313 68.3667 62.87 85.812C53.808 103.251 49.277 123.871 49.277 147.672C49.277 171.204 53.808 191.761 62.87 209.344C71.932 226.929 84.2393 240.591 99.792 250.328C115.343 260.058 132.989 264.923 152.73 264.922Z" fill="white"/><path d="M0 325.192H305.476" stroke="white" stroke-width="11.231"/></svg>
